<svg width="38" height="23" viewBox="0 0 38 23" fill="none" xmlns="http://www.w3.org/2000/svg">
<g id="Group 488">
<path id="Vector" d="M37.9955 22.9966H0V0.351562H37.9955V22.9966Z" fill="#3A569B"/>
<path id="Vector_2" d="M15.6121 23.0014L38.0003 0.566111V0.347656H37.8855L15.2764 23.0014H15.6121Z" fill="white"/>
<path id="Vector_3" d="M1.49343 23.0014L3.00866 0.347656H2.77011L1.25488 23.0014H1.49343Z" fill="white"/>
<path id="Vector_4" d="M2.70339 23.0014L5.97239 0.347656H5.73384L2.46484 23.0014H2.70339Z" fill="white"/>
<path id="Vector_5" d="M3.99785 23.0014L9.11339 0.347656H8.87042L3.75488 23.0014H3.99785Z" fill="white"/>
<path id="Vector_6" d="M5.42024 23.0014L12.7225 0.347656H12.4751L5.17285 23.0014H5.42024Z" fill="white"/>
<path id="Vector_7" d="M6.76306 23.0014L16.1371 0.347656H15.8809L6.50684 23.0014H6.76306Z" fill="white"/>
<path id="Vector_8" d="M8.30509 23.0014L20.0381 0.347656H19.7731L8.04004 23.0014H8.30509Z" fill="white"/>
<path id="Vector_9" d="M25.8951 0.347656H25.6124L10.4248 23.0014H10.7119L25.8951 0.347656Z" fill="white"/>
<path id="Vector_10" d="M31.3117 0.347656H31.0069L12.5547 23.0014H12.8551L31.3117 0.347656Z" fill="white"/>
<path id="Vector_11" d="M37.9998 8.91429V8.61719L19.6934 23.0003H20.0733L37.9998 8.91429Z" fill="white"/>
<path id="Vector_12" d="M37.9997 15.1503V14.875L24.8574 23.0015H25.2992L37.9997 15.1503Z" fill="white"/>
<path id="Vector_13" d="M38.0003 21.0317V20.7695L33.1631 23.0021H33.7241L38.0003 21.0317Z" fill="white"/>
<path id="Vector_14" d="M8.51311 16.0999C4.56381 16.0999 1.87793 13.6926 1.87793 9.79095C1.87793 5.88934 4.74493 3.32031 8.54845 3.32031C9.55566 3.32031 10.6733 3.51692 11.5215 3.91014V5.78012C11.1062 5.22961 10.2581 4.24656 8.58379 4.24656C6.20273 4.24656 4.85095 6.4049 4.85095 9.52444C4.85095 12.8056 6.11438 15.1387 8.8356 15.1387C9.78979 15.1387 10.9781 14.6581 11.5215 14.1601L11.9721 15.1387C11.4508 15.5319 10.4922 16.0999 8.51311 16.0999Z" fill="white"/>
<path id="Vector_15" d="M8.51311 16.0999C4.56381 16.0999 1.87793 13.6926 1.87793 9.79095C1.87793 5.88934 4.74493 3.32031 8.54845 3.32031C9.55566 3.32031 10.6733 3.51692 11.5215 3.91014V5.78012C11.1062 5.22961 10.2581 4.24656 8.58379 4.24656C6.20273 4.24656 4.85095 6.4049 4.85095 9.52444C4.85095 12.8056 6.11438 15.1387 8.8356 15.1387C9.78979 15.1387 10.9781 14.6581 11.5215 14.1601L11.9721 15.1387C11.4508 15.532 10.4922 16.0999 8.51311 16.0999Z" stroke="white" stroke-width="0.27"/>
<path id="Vector_16" d="M21.4381 9.7218C21.4381 14.554 18.4298 14.8904 16.1017 14.8904V4.47888C18.4828 4.47888 21.4381 4.76287 21.4381 9.7218ZM18.3017 15.8735C20.7004 15.8735 24.3581 14.4098 24.3581 9.66937C24.3581 4.65802 20.7357 3.53516 17.9924 3.53516H13.4512V15.8735H18.2972H18.3017Z" fill="white"/>
<path id="Vector_17" d="M21.4381 9.7218C21.4381 14.554 18.4298 14.8904 16.1017 14.8904V4.47888C18.4828 4.47888 21.4381 4.76287 21.4381 9.7218ZM18.3017 15.8735C20.7004 15.8735 24.3581 14.4098 24.3581 9.66937C24.3581 4.65802 20.7357 3.53516 17.9924 3.53516H13.4512V15.8735H18.2972H18.3017Z" stroke="white" stroke-width="0.27"/>
<path id="Vector_18" d="M32.4516 16.0999C28.5023 16.0999 25.8164 13.6926 25.8164 9.79095C25.8164 5.88934 28.6834 3.32031 32.4869 3.32031C33.4986 3.32031 34.6118 3.51692 35.46 3.91014V5.78012C35.0447 5.22961 34.1965 4.24656 32.5223 4.24656C30.1456 4.24656 28.7938 6.4049 28.7938 9.52444C28.7938 12.8056 30.0529 15.1387 32.7785 15.1387C33.7327 15.1387 34.9254 14.6581 35.4644 14.1601L35.915 15.1387C35.3937 15.5319 34.4395 16.0999 32.456 16.0999" fill="white"/>
<path id="Vector_19" d="M32.4516 16.0999C28.5023 16.0999 25.8164 13.6926 25.8164 9.79095C25.8164 5.88934 28.6834 3.32031 32.4869 3.32031C33.4986 3.32031 34.6118 3.51692 35.46 3.91014V5.78012C35.0447 5.22961 34.1965 4.24656 32.5223 4.24656C30.1456 4.24656 28.7938 6.4049 28.7938 9.52444C28.7938 12.8056 30.0529 15.1387 32.7785 15.1387C33.7327 15.1387 34.9254 14.6581 35.4644 14.1601L35.915 15.1387C35.3937 15.532 34.4395 16.0999 32.456 16.0999H32.4516Z" stroke="white" stroke-width="0.27"/>
</g>
</svg>
