<svg width="32" height="33" viewBox="0 0 32 33" fill="none" xmlns="http://www.w3.org/2000/svg">
<g id="account_circle">
<g id="USWDS Components">
<g id="Icons">
<g id="Fill">
<path id="Vector" fill-rule="evenodd" clip-rule="evenodd" d="M16 2.66797C8.64002 2.66797 2.66669 8.6413 2.66669 16.0013C2.66669 23.3613 8.64002 29.3346 16 29.3346C23.36 29.3346 29.3334 23.3613 29.3334 16.0013C29.3334 8.6413 23.36 2.66797 16 2.66797ZM16 6.66797C18.2134 6.66797 20 8.45464 20 10.668C20 12.8813 18.2134 14.668 16 14.668C13.7867 14.668 12 12.8813 12 10.668C12 8.45464 13.7867 6.66797 16 6.66797ZM16 25.6013C12.6667 25.6013 9.72002 23.8946 8.00002 21.308C8.04002 18.6546 13.3334 17.2013 16 17.2013C18.6534 17.2013 23.96 18.6546 24 21.308C22.28 23.8946 19.3334 25.6013 16 25.6013Z" fill="white"/>
</g>
</g>
</g>
</g>
</svg>
