<svg width="18" height="18" viewBox="0 0 18 18" fill="none" xmlns="http://www.w3.org/2000/svg">
<g id="info_outline">
<g id="USWDS Components">
<g id="Icons">
<g id="Fill">
<path id="Vector" fill-rule="evenodd" clip-rule="evenodd" d="M7.99219 5.25H9.44531V6.75H7.99219V5.25ZM7.99219 8.25H9.44531V12.75H7.99219V8.25ZM8.71875 1.5C4.70813 1.5 1.45312 4.86 1.45312 9C1.45312 13.14 4.70813 16.5 8.71875 16.5C12.7294 16.5 15.9844 13.14 15.9844 9C15.9844 4.86 12.7294 1.5 8.71875 1.5ZM8.71875 15C5.51461 15 2.90625 12.3075 2.90625 9C2.90625 5.6925 5.51461 3 8.71875 3C11.9229 3 14.5313 5.6925 14.5313 9C14.5313 12.3075 11.9229 15 8.71875 15Z" fill="#005EA2"/>
</g>
</g>
</g>
</g>
</svg>
