<svg width="32" height="33" viewBox="0 0 32 33" fill="none" xmlns="http://www.w3.org/2000/svg">
<g id="settings">
<g id="USWDS Components">
<g id="Icons">
<g id="Fill">
<path id="Vector" fill-rule="evenodd" clip-rule="evenodd" d="M25.52 17.2547C25.5733 16.8546 25.6 16.4413 25.6 16.0012C25.6 15.5745 25.5733 15.1478 25.5067 14.7478L28.2133 12.641C28.4533 12.4543 28.52 12.0942 28.3733 11.8276L25.8133 7.40054C25.6533 7.10718 25.32 7.01384 25.0267 7.10718L21.84 8.38728C21.1733 7.88057 20.4667 7.45387 19.68 7.13385L19.2 3.74691C19.1467 3.42688 18.88 3.2002 18.56 3.2002H13.44C13.12 3.2002 12.8666 3.42688 12.8133 3.74691L12.3333 7.13385C11.5467 7.45387 10.8267 7.89391 10.1733 8.38728L6.98665 7.10718C6.69332 7.0005 6.35998 7.10718 6.19998 7.40054L3.65332 11.8276C3.49332 12.1076 3.54665 12.4543 3.81332 12.641L6.51998 14.7478C6.45332 15.1478 6.39998 15.5879 6.39998 16.0012C6.39998 16.4146 6.42665 16.8546 6.49332 17.2547L3.78665 19.3615C3.54665 19.5482 3.47998 19.9082 3.62665 20.1749L6.18665 24.6019C6.34665 24.8953 6.67998 24.9886 6.97332 24.8953L10.16 23.6152C10.8267 24.1219 11.5333 24.5486 12.32 24.8686L12.8 28.2556C12.8667 28.5756 13.12 28.8023 13.44 28.8023H18.56C18.88 28.8023 19.1467 28.5756 19.1867 28.2556L19.6667 24.8686C20.4533 24.5486 21.1733 24.1219 21.8267 23.6152L25.0133 24.8953C25.3067 25.002 25.64 24.8953 25.8 24.6019L28.36 20.1749C28.52 19.8815 28.4533 19.5482 28.2 19.3615L25.52 17.2547ZM16 20.8016C13.36 20.8016 11.2 18.6414 11.2 16.0012C11.2 13.361 13.36 11.2008 16 11.2008C18.64 11.2008 20.8 13.361 20.8 16.0012C20.8 18.6414 18.64 20.8016 16 20.8016Z" fill="white"/>
</g>
</g>
</g>
</g>
</svg>
