<?xml version="1.0" encoding="UTF-8"?><!DOCTYPE svg PUBLIC "-//W3C//DTD SVG 1.1//EN" "http://www.w3.org/Graphics/SVG/1.1/DTD/svg11.dtd">
<svg xmlns="http://www.w3.org/2000/svg"
  xmlns:xlink="http://www.w3.org/1999/xlink">
  <symbol id="table" viewBox="0 0 24 24">
    <path fill-rule="evenodd" clip-rule="evenodd" d="M21.7142 3.99973V19.427H2.28564V3.99973H21.7142ZM3.99993 17.7129H7.99993V10.2849H3.99993V17.7129ZM9.71422 17.7129H14.2856V10.2849H9.71422V17.7129ZM15.9999 17.7129H19.9999V10.2849H15.9999V17.7129ZM19.9999 5.71387V8.57078H3.99993V5.71387H19.9999Z" />
  </symbol>

  <symbol id="file" viewBox="0 0 384 512" fill="#07648d">
    <path d="M224 136V0H24C10.7 0 0 10.7 0 24v464c0 13.3 10.7 24 24 24h336c13.3 0 24-10.7 24-24V160H248c-13.2 0-24-10.8-24-24zm160-14.1v6.1H256V0h6.1c6.4 0 12.5 2.5 17 7l97.9 98c4.5 4.5 7 10.6 7 16.9z"/>
  </symbol>
  
  <symbol id="file-pdf" viewBox="0 0 384 512" fill="#07648d">
    <path d="M181.9 256.1c-5-16-4.9-46.9-2-46.9 8.4 0 7.6 36.9 2 46.9zm-1.7 47.2c-7.7 20.2-17.3 43.3-28.4 62.7 18.3-7 39-17.2 62.9-21.9-12.7-9.6-24.9-23.4-34.5-40.8zM86.1 428.1c0 .8 13.2-5.4 34.9-40.2-6.7 6.3-29.1 24.5-34.9 40.2zM248 160h136v328c0 13.3-10.7 24-24 24H24c-13.3 0-24-10.7-24-24V24C0 10.7 10.7 0 24 0h200v136c0 13.2 10.8 24 24 24zm-8 171.8c-20-12.2-33.3-29-42.7-53.8 4.5-18.5 11.6-46.6 6.2-64.2-4.7-29.4-42.4-26.5-47.8-6.8-5 18.3-.4 44.1 8.1 77-11.6 27.6-28.7 64.6-40.8 85.8-.1 0-.1.1-.2.1-27.1 13.9-73.6 44.5-54.5 68 5.6 6.9 16 10 21.5 10 17.9 0 35.7-18 61.1-61.8 25.8-8.5 54.1-19.1 79-23.2 21.7 11.8 47.1 19.5 64 19.5 29.2 0 31.2-32 19.7-43.4-13.9-13.6-54.3-9.7-73.6-7.2zM377 105L279 7c-4.5-4.5-10.6-7-17-7h-6v128h128v-6.1c0-6.3-2.5-12.4-7-16.9zm-74.1 255.3c4.1-2.7-2.5-11.9-42.8-9 37.1 15.8 42.8 9 42.8 9z"/>
  </symbol>

  <symbol id="file-json" viewBox="0 0 58 58">
	  <path d="M50.949,12.187l-1.361-1.361l-9.504-9.505c-0.001-0.001-0.001-0.001-0.002-0.001l-0.77-0.771   C38.957,0.195,38.486,0,37.985,0H8.963C7.776,0,6.5,0.916,6.5,2.926V39v16.537V56c0,0.837,0.841,1.652,1.836,1.909   c0.051,0.014,0.1,0.033,0.152,0.043C8.644,57.983,8.803,58,8.963,58h40.074c0.16,0,0.319-0.017,0.475-0.048   c0.052-0.01,0.101-0.029,0.152-0.043C50.659,57.652,51.5,56.837,51.5,56v-0.463V39V13.978C51.5,13.211,51.407,12.644,50.949,12.187   z M39.5,3.565L47.935,12H39.5V3.565z M8.963,56c-0.071,0-0.135-0.025-0.198-0.049C8.61,55.877,8.5,55.721,8.5,55.537V41h41v14.537   c0,0.184-0.11,0.34-0.265,0.414C49.172,55.975,49.108,56,49.037,56H8.963z M8.5,39V2.926C8.5,2.709,8.533,2,8.963,2h28.595   C37.525,2.126,37.5,2.256,37.5,2.391V13.78c-0.532-0.48-1.229-0.78-2-0.78c-0.553,0-1,0.448-1,1s0.447,1,1,1c0.552,0,1,0.449,1,1v4   c0,1.2,0.542,2.266,1.382,3c-0.84,0.734-1.382,1.8-1.382,3v4c0,0.551-0.448,1-1,1c-0.553,0-1,0.448-1,1s0.447,1,1,1   c1.654,0,3-1.346,3-3v-4c0-1.103,0.897-2,2-2c0.553,0,1-0.448,1-1s-0.447-1-1-1c-1.103,0-2-0.897-2-2v-4   c0-0.771-0.301-1.468-0.78-2h11.389c0.135,0,0.265-0.025,0.391-0.058c0,0.015,0.001,0.021,0.001,0.036V39H8.5z"/>
	  <path d="m16.354 51.43c-0.019 0.446-0.171 0.764-0.458 0.95s-0.672 0.28-1.155 0.28c-0.191 0-0.396-0.022-0.615-0.068s-0.429-0.098-0.629-0.157-0.385-0.123-0.554-0.191-0.299-0.135-0.39-0.198l-0.697 1.107c0.183 0.137 0.405 0.26 0.67 0.369s0.54 0.207 0.827 0.294 0.565 0.15 0.834 0.191 0.504 0.062 0.704 0.062c0.401 0 0.791-0.039 1.169-0.116s0.713-0.214 1.005-0.41 0.524-0.456 0.697-0.779 0.26-0.723 0.26-1.196v-7.848h-1.668v7.71z"/>
	  <path d="m25.083 49.064c-0.314-0.228-0.654-0.422-1.019-0.581s-0.702-0.323-1.012-0.492-0.569-0.364-0.779-0.588-0.314-0.518-0.314-0.882c0-0.146 0.036-0.299 0.109-0.458s0.173-0.303 0.301-0.431 0.273-0.234 0.438-0.321 0.337-0.139 0.52-0.157c0.328-0.027 0.597-0.032 0.807-0.014s0.378 0.05 0.506 0.096 0.226 0.091 0.294 0.137 0.13 0.082 0.185 0.109c9e-3 -9e-3 0.036-0.055 0.082-0.137s0.101-0.185 0.164-0.308 0.132-0.255 0.205-0.396 0.137-0.271 0.191-0.39c-0.265-0.173-0.61-0.299-1.039-0.376s-0.853-0.116-1.271-0.116c-0.41 0-0.8 0.063-1.169 0.191s-0.692 0.313-0.971 0.554-0.499 0.535-0.663 0.882-0.248 0.744-0.248 1.19c0 0.492 0.104 0.902 0.314 1.23s0.474 0.613 0.793 0.854 0.661 0.451 1.025 0.629 0.704 0.355 1.019 0.533 0.576 0.376 0.786 0.595 0.314 0.483 0.314 0.793c0 0.511-0.148 0.896-0.444 1.155s-0.723 0.39-1.278 0.39c-0.183 0-0.378-0.019-0.588-0.055s-0.419-0.084-0.629-0.144-0.412-0.123-0.608-0.191-0.357-0.139-0.485-0.212l-0.287 1.176c0.155 0.137 0.34 0.253 0.554 0.349s0.439 0.171 0.677 0.226c0.237 0.055 0.472 0.094 0.704 0.116s0.458 0.034 0.677 0.034c0.511 0 0.966-0.077 1.367-0.232s0.738-0.362 1.012-0.622 0.485-0.561 0.636-0.902 0.226-0.695 0.226-1.06c0-0.538-0.104-0.978-0.314-1.319s-0.474-0.627-0.788-0.855z"/>
	  <path d="m34.872 45.072c-0.378-0.429-0.82-0.754-1.326-0.978s-1.06-0.335-1.661-0.335-1.155 0.111-1.661 0.335-0.948 0.549-1.326 0.978-0.675 0.964-0.889 1.606-0.321 1.388-0.321 2.235 0.107 1.595 0.321 2.242 0.511 1.185 0.889 1.613 0.82 0.752 1.326 0.971 1.06 0.328 1.661 0.328 1.155-0.109 1.661-0.328 0.948-0.542 1.326-0.971 0.675-0.966 0.889-1.613 0.321-1.395 0.321-2.242-0.107-1.593-0.321-2.235-0.511-1.177-0.889-1.606zm-0.677 5.626c-0.137 0.487-0.326 0.882-0.567 1.183s-0.515 0.518-0.82 0.649-0.627 0.198-0.964 0.198c-0.328 0-0.641-0.07-0.937-0.212s-0.561-0.364-0.793-0.67-0.415-0.699-0.547-1.183-0.203-1.066-0.212-1.75c9e-3 -0.702 0.082-1.294 0.219-1.777s0.326-0.877 0.567-1.183 0.515-0.521 0.82-0.649 0.627-0.191 0.964-0.191c0.328 0 0.641 0.068 0.937 0.205s0.561 0.36 0.793 0.67 0.415 0.704 0.547 1.183 0.203 1.06 0.212 1.743c-9e-3 0.702-0.082 1.297-0.219 1.784z"/>
	  <polygon points="44.012 50.869 40.061 43.924 38.393 43.924 38.393 54 40.061 54 40.061 47.055 44.012 54 45.68 54 45.68 43.924 44.012 43.924"/>
	  <path d="m20.5 20v-4c0-0.551 0.448-1 1-1 0.553 0 1-0.448 1-1s-0.447-1-1-1c-1.654 0-3 1.346-3 3v4c0 1.103-0.897 2-2 2-0.553 0-1 0.448-1 1s0.447 1 1 1c1.103 0 2 0.897 2 2v4c0 1.654 1.346 3 3 3 0.553 0 1-0.448 1-1s-0.447-1-1-1c-0.552 0-1-0.449-1-1v-4c0-1.2-0.542-2.266-1.382-3 0.84-0.734 1.382-1.8 1.382-3z"/>
	  <circle cx="28.5" cy="19.5" r="1.5"/>
	  <path d="m28.5 25c-0.553 0-1 0.448-1 1v3c0 0.552 0.447 1 1 1s1-0.448 1-1v-3c0-0.552-0.447-1-1-1z"/>
  </symbol>

  <symbol id="sort_asc_alpha" viewBox="0 0 36 36">
    <path fill-rule="evenodd" clip-rule="evenodd" d="M9.96654 11.3843L9.96654 28.6191L6.34987 25.0021L3.99987 27.3523L11.6332 35.0029L19.2832 27.3523L16.9165 25.0021L13.2999 28.6191L13.2999 11.3843L13.2999 5.0005L9.96654 5.0005L9.96654 11.3843Z" />
    <path d="M24 17.9998L28.653 4.98584H31.434L36.087 17.9998H33.468L32.406 14.9848H27.717L26.637 17.9998H24ZM28.311 12.6898H31.767L30.048 7.51484L28.311 12.6898Z" />
    <path d="M24.4771 34.9998V33.7218L31.0831 24.1818H24.9181V21.9858H34.8271V23.2098L28.1311 32.7768H34.7551V34.9998H24.4771Z" />
  </symbol>

  <symbol id="sort_des_alpha" viewBox="0 0 36 36">
    <path fill-rule="evenodd" clip-rule="evenodd" d="M9.96654 11.3843L9.96654 28.6191L6.34987 25.0021L3.99987 27.3523L11.6332 35.0029L19.2832 27.3523L16.9165 25.0021L13.2999 28.6191L13.2999 11.3843L13.2999 5.0005L9.96654 5.0005L9.96654 11.3843Z" />
    <path d="M24 34.9998L28.653 21.9858H31.434L36.087 34.9998H33.468L32.406 31.9848H27.717L26.637 34.9998H24ZM28.311 29.6898H31.767L30.048 24.5148L28.311 29.6898Z" />
    <path d="M24.4771 17.9998V16.7218L31.0831 7.18184H24.9181V4.98584H34.8271V6.20984L28.1311 15.7768H34.7551V17.9998H24.4771Z" />
  </symbol>
  
  <symbol id="sort_asc_numeric" viewBox="0 0 36 36">
    <path fill-rule="evenodd" clip-rule="evenodd" d="M9.96654 11.3843L9.96654 28.6191L6.34987 25.0021L3.99987 27.3523L11.6332 35.0029L19.2832 27.3523L16.9165 25.0021L13.2999 28.6191L13.2999 11.3843L13.2999 5.0005L9.96654 5.0005L9.96654 11.3843Z"/>
    <path d="M29.814 18.392C28.236 18.392 27.003 17.819 26.115 16.673C25.233 15.527 24.792 13.877 24.792 11.723C24.792 10.283 24.996 9.062 25.404 8.06C25.812 7.058 26.391 6.299 27.141 5.783C27.891 5.261 28.782 5 29.814 5C31.362 5 32.583 5.579 33.477 6.737C34.371 7.889 34.818 9.548 34.818 11.714C34.818 13.868 34.377 15.521 33.495 16.673C32.613 17.819 31.386 18.392 29.814 18.392ZM29.814 16.241C30.588 16.241 31.155 15.896 31.515 15.206C31.875 14.51 32.055 13.349 32.055 11.723C32.055 10.061 31.872 8.87 31.506 8.15C31.14 7.43 30.573 7.07 29.805 7.07C29.037 7.07 28.464 7.433 28.086 8.159C27.714 8.885 27.528 10.073 27.528 11.723C27.528 13.343 27.714 14.501 28.086 15.197C28.458 15.893 29.034 16.241 29.814 16.241Z"/>
    <path d="M29.5711 34.9921C28.7611 34.9921 28.0051 34.8361 27.3031 34.5241C26.6011 34.2121 26.0281 33.7741 25.5841 33.2101C25.1401 32.6401 24.8911 31.9741 24.8371 31.2121H27.3391C27.4471 31.7161 27.6871 32.1271 28.0591 32.4451C28.4311 32.7571 28.8991 32.9131 29.4631 32.9131C30.0871 32.9131 30.6331 32.7661 31.1011 32.4721C31.5751 32.1781 31.9291 31.7101 32.1631 31.0681C32.4031 30.4261 32.4871 29.5861 32.4151 28.5481C32.2471 28.8661 32.0131 29.1451 31.7131 29.3851C31.4191 29.6191 31.0741 29.8021 30.6781 29.9341C30.2821 30.0601 29.8411 30.1231 29.3551 30.1231C28.4731 30.1231 27.6901 29.9581 27.0061 29.6281C26.3281 29.2921 25.7941 28.8181 25.4041 28.2061C25.0201 27.5881 24.8281 26.8561 24.8281 26.0101C24.8281 25.1581 25.0321 24.3991 25.4401 23.7331C25.8481 23.0671 26.4181 22.5451 27.1501 22.1671C27.8821 21.7891 28.7401 21.6001 29.7241 21.6001C30.8281 21.6001 31.7791 21.8641 32.5771 22.3921C33.3811 22.9141 33.9961 23.6581 34.4221 24.6241C34.8541 25.5841 35.0701 26.7151 35.0701 28.0171C35.0701 29.5711 34.8481 30.8671 34.4041 31.9051C33.9661 32.9371 33.3361 33.7111 32.5141 34.2271C31.6921 34.7371 30.7111 34.9921 29.5711 34.9921ZM29.8051 28.0351C30.1711 28.0351 30.5251 27.9541 30.8671 27.7921C31.2151 27.6241 31.5001 27.4141 31.7221 27.1621C31.9441 26.9101 32.0551 26.6491 32.0551 26.3791C32.0611 25.7971 31.9681 25.2991 31.7761 24.8851C31.5901 24.4651 31.3261 24.1441 30.9841 23.9221C30.6481 23.7001 30.2551 23.5891 29.8051 23.5891C29.3911 23.5891 29.0221 23.6851 28.6981 23.8771C28.3741 24.0691 28.1191 24.3391 27.9331 24.6871C27.7471 25.0351 27.6541 25.4371 27.6541 25.8931C27.6541 26.5711 27.8521 27.0991 28.2481 27.4771C28.6441 27.8491 29.1631 28.0351 29.8051 28.0351Z"/>
  </symbol>

  <symbol id="sort_des_numeric" viewBox="0 0 36 36">
    <path fill-rule="evenodd" clip-rule="evenodd" d="M9.96654 11.3843L9.96654 28.6191L6.34987 25.0021L3.99987 27.3523L11.6332 35.0029L19.2832 27.3523L16.9165 25.0021L13.2999 28.6191L13.2999 11.3843L13.2999 5.0005L9.96654 5.0005L9.96654 11.3843Z" />
    <path d="M29.814 34.9921C28.236 34.9921 27.003 34.4191 26.115 33.2731C25.233 32.1271 24.792 30.4771 24.792 28.3231C24.792 26.8831 24.996 25.6621 25.404 24.6601C25.812 23.6581 26.391 22.8991 27.141 22.3831C27.891 21.8611 28.782 21.6001 29.814 21.6001C31.362 21.6001 32.583 22.1791 33.477 23.3371C34.371 24.4891 34.818 26.1481 34.818 28.3141C34.818 30.4681 34.377 32.1211 33.495 33.2731C32.613 34.4191 31.386 34.9921 29.814 34.9921ZM29.814 32.8411C30.588 32.8411 31.155 32.4961 31.515 31.8061C31.875 31.1101 32.055 29.9491 32.055 28.3231C32.055 26.6611 31.872 25.4701 31.506 24.7501C31.14 24.0301 30.573 23.6701 29.805 23.6701C29.037 23.6701 28.464 24.0331 28.086 24.7591C27.714 25.4851 27.528 26.6731 27.528 28.3231C27.528 29.9431 27.714 31.1011 28.086 31.7971C28.458 32.4931 29.034 32.8411 29.814 32.8411Z" />
    <path d="M29.5711 18.392C28.7611 18.392 28.0051 18.236 27.3031 17.924C26.6011 17.612 26.0281 17.174 25.5841 16.61C25.1401 16.04 24.8911 15.374 24.8371 14.612H27.3391C27.4471 15.116 27.6871 15.527 28.0591 15.845C28.4311 16.157 28.8991 16.313 29.4631 16.313C30.0871 16.313 30.6331 16.166 31.1011 15.872C31.5751 15.578 31.9291 15.11 32.1631 14.468C32.4031 13.826 32.4871 12.986 32.4151 11.948C32.2471 12.266 32.0131 12.545 31.7131 12.785C31.4191 13.019 31.0741 13.202 30.6781 13.334C30.2821 13.46 29.8411 13.523 29.3551 13.523C28.4731 13.523 27.6901 13.358 27.0061 13.028C26.3281 12.692 25.7941 12.218 25.4041 11.606C25.0201 10.988 24.8281 10.256 24.8281 9.41C24.8281 8.558 25.0321 7.799 25.4401 7.133C25.8481 6.467 26.4181 5.945 27.1501 5.567C27.8821 5.189 28.7401 5 29.7241 5C30.8281 5 31.7791 5.264 32.5771 5.792C33.3811 6.314 33.9961 7.058 34.4221 8.024C34.8541 8.984 35.0701 10.115 35.0701 11.417C35.0701 12.971 34.8481 14.267 34.4041 15.305C33.9661 16.337 33.3361 17.111 32.5141 17.627C31.6921 18.137 30.7111 18.392 29.5711 18.392ZM29.8051 11.435C30.1711 11.435 30.5251 11.354 30.8671 11.192C31.2151 11.024 31.5001 10.814 31.7221 10.562C31.9441 10.31 32.0551 10.049 32.0551 9.779C32.0611 9.197 31.9681 8.699 31.7761 8.285C31.5901 7.865 31.3261 7.544 30.9841 7.322C30.6481 7.1 30.2551 6.989 29.8051 6.989C29.3911 6.989 29.0221 7.085 28.6981 7.277C28.3741 7.469 28.1191 7.739 27.9331 8.087C27.7471 8.435 27.6541 8.837 27.6541 9.293C27.6541 9.971 27.8521 10.499 28.2481 10.877C28.6441 11.249 29.1631 11.435 29.8051 11.435Z" />
  </symbol>

  <symbol id="sort_asc_default" viewBox="0 0 36 36">
    <path fill-rule="evenodd" clip-rule="evenodd" d="M17.9668 11.3839L17.9668 28.6186L14.3501 25.0016L12.0001 27.3518L19.6334 35.0024L27.2834 27.3518L24.9168 25.0016L21.3001 28.6186L21.3001 11.3839L21.3001 5.00001L17.9668 5.00001L17.9668 11.3839Z" />
  </symbol>

  <symbol id="sort_des_default" viewBox="0 0 36 36">
    <path fill-rule="evenodd" clip-rule="evenodd" d="M21.3164 28.6186L21.3164 11.3839L24.9331 15.0008L27.2831 12.6506L19.6498 5L11.9998 12.6506L14.3664 15.0008L17.9831 11.3839L17.9831 28.6186V35.0024H21.3164V28.6186Z" />
  </symbol>
</svg>