<svg width="20" height="20" viewBox="0 0 20 20" fill="none" xmlns="http://www.w3.org/2000/svg">
<path d="M14 17C13.4478 17 13 17.4477 13 18C13 18.5523 13.4478 19 14 19C14.5522 19 15 18.5523 15 18C15 17.4477 14.5522 17 14 17Z" fill="#005EA2" stroke="#005EA2" stroke-width="2" stroke-linecap="round" stroke-linejoin="round"/>
<path d="M14 9C13.4478 9 13 9.4478 13 10C13 10.5522 13.4478 11 14 11C14.5522 11 15 10.5522 15 10C15 9.4478 14.5522 9 14 9Z" fill="#005EA2" stroke="#005EA2" stroke-width="2" stroke-linecap="round" stroke-linejoin="round"/>
<path d="M14 1C13.4478 1 13 1.4478 13 2C13 2.5522 13.4478 3 14 3C14.5522 3 15 2.5522 15 2C15 1.4478 14.5522 1 14 1Z" fill="#005EA2" stroke="#005EA2" stroke-width="2" stroke-linecap="round" stroke-linejoin="round"/>
<path d="M6 17C5.4478 17 5 17.4477 5 18C5 18.5523 5.4478 19 6 19C6.5522 19 7 18.5523 7 18C7 17.4477 6.5522 17 6 17Z" fill="#005EA2" stroke="#005EA2" stroke-width="2" stroke-linecap="round" stroke-linejoin="round"/>
<path d="M6 9C5.4478 9 5 9.4478 5 10C5 10.5522 5.4478 11 6 11C6.5522 11 7 10.5522 7 10C7 9.4478 6.5522 9 6 9Z" fill="#005EA2" stroke="#005EA2" stroke-width="2" stroke-linecap="round" stroke-linejoin="round"/>
<path d="M6 1C5.4478 1 5 1.4478 5 2C5 2.5522 5.4478 3 6 3C6.5522 3 7 2.5522 7 2C7 1.4478 6.5522 1 6 1Z" fill="#005EA2" stroke="#005EA2" stroke-width="2" stroke-linecap="round" stroke-linejoin="round"/>
</svg>
