<svg width="22" height="22" viewBox="0 0 22 22" fill="none" xmlns="http://www.w3.org/2000/svg">
<path d="M1 4.7V1.3C1 1.13431 1.26863 1 1.6 1H20.4C20.7314 1 21 1.13431 21 1.3V4.7C21 4.86568 20.7314 5 20.4 5H1.6C1.26863 5 1 4.86568 1 4.7Z" stroke="black"/>
<path d="M1 12.7V9.3C1 9.1343 1.26863 9 1.6 9H20.4C20.7314 9 21 9.1343 21 9.3V12.7C21 12.8657 20.7314 13 20.4 13H1.6C1.26863 13 1 12.8657 1 12.7Z" stroke="black"/>
<path d="M1 20.7V17.3C1 17.1343 1.26863 17 1.6 17H20.4C20.7314 17 21 17.1343 21 17.3V20.7C21 20.8657 20.7314 21 20.4 21H1.6C1.26863 21 1 20.8657 1 20.7Z" stroke="black"/>
</svg>
