<svg width="178" height="26" viewBox="0 0 178 26" fill="none" xmlns="http://www.w3.org/2000/svg">
<path d="M18.2135 11.7179H2.42007C1.88604 11.7179 1.45312 11.5051 1.45312 11.2424V3.47552C1.45312 3.2129 1.88604 3 2.42007 3H18.2135C18.7475 3 19.1804 3.2129 19.1804 3.47552V11.2424C19.1804 11.5051 18.7475 11.7179 18.2135 11.7179Z" stroke="black" stroke-linecap="round" stroke-linejoin="round"/>
<path d="M21.8463 22.9999H6.05288C5.51885 22.9999 5.08594 22.7871 5.08594 22.5244V14.7575C5.08594 14.4949 5.51885 14.282 6.05288 14.282H21.8463C22.3803 14.282 22.8132 14.4949 22.8132 14.7575V22.5244C22.8132 22.7871 22.3803 22.9999 21.8463 22.9999Z" stroke="black" stroke-linecap="round" stroke-linejoin="round"/>
<path d="M43.127 19.16C42.1243 19.16 41.311 18.9947 40.687 18.664C40.0683 18.3333 39.615 17.848 39.327 17.208C39.0443 16.568 38.903 15.7813 38.903 14.848V7.432H40.439V15.072C40.439 16.0053 40.671 16.704 41.135 17.168C41.599 17.632 42.263 17.864 43.127 17.864C43.7083 17.864 44.2017 17.7627 44.607 17.56C45.0177 17.3573 45.3297 17.0507 45.543 16.64C45.7617 16.224 45.871 15.7013 45.871 15.072V7.432H47.359V15C47.359 15.8907 47.2123 16.6453 46.919 17.264C46.6257 17.8827 46.167 18.3547 45.543 18.68C44.9243 19 44.119 19.16 43.127 19.16ZM49.8021 19V10.728H51.2341V11.928C51.3675 11.6987 51.5515 11.4827 51.7861 11.28C52.0261 11.0773 52.3141 10.9147 52.6501 10.792C52.9915 10.6693 53.3835 10.608 53.8261 10.608C54.3488 10.608 54.8288 10.712 55.2661 10.92C55.7088 11.128 56.0608 11.4533 56.3221 11.896C56.5888 12.3333 56.7221 12.8987 56.7221 13.592V19H55.2421V13.736C55.2421 13.0907 55.0715 12.6133 54.7301 12.304C54.3941 11.9893 53.9568 11.832 53.4181 11.832C53.0448 11.832 52.6955 11.8933 52.3701 12.016C52.0448 12.1333 51.7808 12.3147 51.5781 12.56C51.3755 12.8 51.2741 13.104 51.2741 13.472V19H49.8021ZM62.5325 21.736C61.2365 21.736 60.2258 21.5467 59.5005 21.168C58.7752 20.7947 58.4125 20.2587 58.4125 19.56C58.4125 19.2613 58.4818 19.008 58.6205 18.8C58.7592 18.5867 58.9245 18.4107 59.1165 18.272C59.3085 18.1333 59.4872 18.024 59.6525 17.944C59.8178 17.8587 59.9272 17.7973 59.9805 17.76C59.8845 17.7067 59.7698 17.64 59.6365 17.56C59.5032 17.48 59.3832 17.3733 59.2765 17.24C59.1752 17.1067 59.1245 16.9333 59.1245 16.72C59.1245 16.4587 59.2472 16.2187 59.4925 16C59.7378 15.7813 60.1032 15.6187 60.5885 15.512C60.1032 15.2667 59.7245 14.9413 59.4525 14.536C59.1805 14.1307 59.0445 13.6907 59.0445 13.216C59.0445 12.6827 59.1885 12.2187 59.4765 11.824C59.7645 11.4293 60.1778 11.128 60.7165 10.92C61.2552 10.7067 61.8978 10.6 62.6445 10.6C63.1832 10.6 63.6338 10.664 63.9965 10.792C64.3645 10.9147 64.7058 11.0907 65.0205 11.32C65.1058 11.2827 65.2418 11.2267 65.4285 11.152C65.6152 11.072 65.8178 10.9867 66.0365 10.896C66.2605 10.8053 66.4685 10.72 66.6605 10.64C66.8578 10.5547 67.0152 10.4907 67.1325 10.448L67.1245 11.816L65.6765 12.088C65.7618 12.2587 65.8285 12.4453 65.8765 12.648C65.9245 12.8507 65.9485 13.04 65.9485 13.216C65.9485 13.7013 65.8205 14.1413 65.5645 14.536C65.3138 14.9307 64.9325 15.2453 64.4205 15.48C63.9085 15.7147 63.2685 15.832 62.5005 15.832C62.4365 15.832 62.3538 15.832 62.2525 15.832C62.1565 15.8267 62.0738 15.8213 62.0045 15.816C61.4392 15.832 61.0498 15.896 60.8365 16.008C60.6285 16.1147 60.5245 16.2347 60.5245 16.368C60.5245 16.5227 60.6445 16.6293 60.8845 16.688C61.1245 16.7467 61.5298 16.7973 62.1005 16.84C62.3085 16.8507 62.5645 16.864 62.8685 16.88C63.1778 16.896 63.5218 16.9173 63.9005 16.944C64.7645 16.9973 65.4312 17.2187 65.9005 17.608C66.3698 17.9973 66.6045 18.5227 66.6045 19.184C66.6045 19.936 66.2685 20.5493 65.5965 21.024C64.9298 21.4987 63.9085 21.736 62.5325 21.736ZM62.7965 20.784C63.5592 20.784 64.1432 20.6693 64.5485 20.44C64.9592 20.2107 65.1645 19.864 65.1645 19.4C65.1645 19.0693 65.0392 18.8 64.7885 18.592C64.5378 18.3787 64.1592 18.256 63.6525 18.224L61.3325 18.072C61.1245 18.0613 60.9085 18.1147 60.6845 18.232C60.4605 18.344 60.2712 18.5013 60.1165 18.704C59.9618 18.9067 59.8845 19.136 59.8845 19.392C59.8845 19.8293 60.1218 20.1707 60.5965 20.416C61.0712 20.6613 61.8045 20.784 62.7965 20.784ZM62.5485 14.88C63.1405 14.88 63.6178 14.7413 63.9805 14.464C64.3485 14.1867 64.5325 13.776 64.5325 13.232C64.5325 12.672 64.3485 12.2453 63.9805 11.952C63.6178 11.6587 63.1405 11.512 62.5485 11.512C61.9405 11.512 61.4498 11.6613 61.0765 11.96C60.7085 12.2533 60.5245 12.6773 60.5245 13.232C60.5245 13.7547 60.7005 14.16 61.0525 14.448C61.4098 14.736 61.9085 14.88 62.5485 14.88ZM68.9896 19V10.728H70.3976V12.32C70.5363 11.9253 70.731 11.6 70.9816 11.344C71.2323 11.0827 71.5176 10.888 71.8376 10.76C72.163 10.632 72.499 10.568 72.8456 10.568C72.9683 10.568 73.0883 10.576 73.2056 10.592C73.323 10.608 73.4136 10.6347 73.4776 10.672V12.104C73.3976 12.0667 73.2936 12.0427 73.1656 12.032C73.043 12.016 72.939 12.008 72.8536 12.008C72.523 11.9867 72.2136 12.008 71.9256 12.072C71.6376 12.1307 71.3843 12.2347 71.1656 12.384C70.947 12.5333 70.7736 12.7307 70.6456 12.976C70.523 13.216 70.4616 13.5093 70.4616 13.856V19H68.9896ZM78.4266 19.16C77.664 19.16 76.9973 18.9973 76.4266 18.672C75.8613 18.3413 75.4213 17.8587 75.1066 17.224C74.792 16.5893 74.6346 15.8133 74.6346 14.896C74.6346 14.032 74.7813 13.2747 75.0746 12.624C75.368 11.9733 75.7973 11.4693 76.3626 11.112C76.928 10.7493 77.6186 10.568 78.4346 10.568C79.1973 10.568 79.8586 10.736 80.4186 11.072C80.9786 11.4027 81.4133 11.8907 81.7226 12.536C82.0373 13.1813 82.1946 13.968 82.1946 14.896C82.1946 15.7387 82.0506 16.48 81.7626 17.12C81.4746 17.76 81.0506 18.2613 80.4906 18.624C79.936 18.9813 79.248 19.16 78.4266 19.16ZM78.4346 17.992C78.9253 17.992 79.3413 17.8667 79.6826 17.616C80.024 17.3653 80.2826 17.0053 80.4586 16.536C80.64 16.0667 80.7306 15.5093 80.7306 14.864C80.7306 14.272 80.6506 13.7413 80.4906 13.272C80.336 12.7973 80.0906 12.4213 79.7546 12.144C79.4186 11.8667 78.9786 11.728 78.4346 11.728C77.9333 11.728 77.5093 11.8533 77.1626 12.104C76.816 12.3493 76.552 12.7067 76.3706 13.176C76.1946 13.6453 76.1066 14.208 76.1066 14.864C76.1066 15.4453 76.184 15.9733 76.3386 16.448C76.4986 16.9227 76.7493 17.2987 77.0906 17.576C77.4373 17.8533 77.8853 17.992 78.4346 17.992ZM87.1703 19.16C86.7383 19.1547 86.3303 19.0933 85.9463 18.976C85.5676 18.8533 85.2316 18.6747 84.9383 18.44C84.6449 18.2053 84.4129 17.9147 84.2423 17.568C84.0769 17.216 83.9943 16.808 83.9943 16.344V10.728H85.4743V16.192C85.4743 16.7307 85.6396 17.168 85.9703 17.504C86.3063 17.84 86.8103 18.008 87.4823 18.008C88.0903 18.008 88.5783 17.8507 88.9463 17.536C89.3196 17.216 89.5063 16.7413 89.5063 16.112V10.728H90.9783V19H89.8023L89.6503 17.416C89.5489 17.832 89.3756 18.168 89.1303 18.424C88.8903 18.68 88.5996 18.8693 88.2583 18.992C87.9223 19.1093 87.5596 19.1653 87.1703 19.16ZM93.5053 21.576V10.728H94.9773L94.9933 12.168C95.0893 11.9973 95.2119 11.8187 95.3613 11.632C95.5159 11.4453 95.7026 11.272 95.9213 11.112C96.1453 10.952 96.4039 10.8213 96.6973 10.72C96.9959 10.6187 97.3346 10.568 97.7133 10.568C98.3746 10.568 98.9559 10.72 99.4573 11.024C99.9639 11.3227 100.359 11.7813 100.641 12.4C100.924 13.0187 101.065 13.8027 101.065 14.752C101.065 15.7013 100.927 16.504 100.649 17.16C100.377 17.8107 99.9826 18.3067 99.4653 18.648C98.9479 18.9893 98.3239 19.16 97.5933 19.16C97.2253 19.16 96.8973 19.1067 96.6093 19C96.3266 18.8987 96.0786 18.7653 95.8653 18.6C95.6573 18.4293 95.4813 18.248 95.3373 18.056C95.1986 17.864 95.0839 17.68 94.9933 17.504V21.576H93.5053ZM97.3133 18.008C97.9959 18.008 98.5533 17.7493 98.9853 17.232C99.4173 16.7093 99.6333 15.8987 99.6333 14.8C99.6333 13.856 99.4359 13.1067 99.0413 12.552C98.6466 11.9973 98.0706 11.72 97.3133 11.72C96.5453 11.72 95.9639 12.0053 95.5693 12.576C95.1746 13.1413 94.9773 13.8827 94.9773 14.8C94.9773 15.392 95.0653 15.9307 95.2413 16.416C95.4173 16.9013 95.6786 17.288 96.0253 17.576C96.3719 17.864 96.8013 18.008 97.3133 18.008ZM112.222 21.576V17.504C112.137 17.68 112.022 17.864 111.878 18.056C111.734 18.248 111.556 18.4293 111.342 18.6C111.134 18.7653 110.886 18.8987 110.598 19C110.316 19.1067 109.99 19.16 109.622 19.16C108.956 19.16 108.361 19.008 107.838 18.704C107.316 18.3947 106.902 17.9147 106.598 17.264C106.3 16.6133 106.15 15.776 106.15 14.752C106.15 13.872 106.278 13.12 106.534 12.496C106.796 11.872 107.174 11.3947 107.67 11.064C108.172 10.7333 108.782 10.568 109.502 10.568C109.881 10.568 110.217 10.6187 110.51 10.72C110.809 10.8213 111.068 10.952 111.286 11.112C111.51 11.272 111.697 11.4453 111.846 11.632C112.001 11.8187 112.126 11.9973 112.222 12.168L112.238 10.728H113.718V21.576H112.222ZM109.902 18.008C110.414 18.008 110.844 17.864 111.19 17.576C111.537 17.288 111.798 16.9013 111.974 16.416C112.15 15.9307 112.238 15.392 112.238 14.8C112.238 13.8827 112.041 13.1413 111.646 12.576C111.257 12.0053 110.676 11.72 109.902 11.72C109.225 11.72 108.668 11.9733 108.23 12.48C107.798 12.9867 107.582 13.76 107.582 14.8C107.582 15.7973 107.78 16.5813 108.174 17.152C108.574 17.7227 109.15 18.008 109.902 18.008ZM119.202 19.16C118.77 19.1547 118.362 19.0933 117.978 18.976C117.599 18.8533 117.263 18.6747 116.97 18.44C116.676 18.2053 116.444 17.9147 116.274 17.568C116.108 17.216 116.026 16.808 116.026 16.344V10.728H117.506V16.192C117.506 16.7307 117.671 17.168 118.002 17.504C118.338 17.84 118.842 18.008 119.514 18.008C120.122 18.008 120.61 17.8507 120.978 17.536C121.351 17.216 121.538 16.7413 121.538 16.112V10.728H123.01V19H121.834L121.682 17.416C121.58 17.832 121.407 18.168 121.162 18.424C120.922 18.68 120.631 18.8693 120.29 18.992C119.954 19.1093 119.591 19.1653 119.202 19.16ZM128.939 19.16C128.171 19.16 127.493 18.992 126.907 18.656C126.32 18.32 125.861 17.8373 125.531 17.208C125.2 16.5787 125.035 15.824 125.035 14.944C125.035 14.0747 125.184 13.312 125.483 12.656C125.781 12 126.213 11.488 126.779 11.12C127.349 10.752 128.035 10.568 128.835 10.568C129.613 10.568 130.272 10.736 130.811 11.072C131.349 11.408 131.757 11.8827 132.035 12.496C132.317 13.104 132.459 13.8267 132.459 14.664V15.208H126.531C126.531 15.7307 126.616 16.2053 126.787 16.632C126.963 17.0533 127.227 17.3893 127.579 17.64C127.931 17.8907 128.376 18.016 128.915 18.016C129.443 18.016 129.896 17.8933 130.275 17.648C130.659 17.4027 130.904 17.048 131.011 16.584H132.403C132.307 17.144 132.083 17.616 131.731 18C131.384 18.384 130.965 18.6747 130.475 18.872C129.989 19.064 129.477 19.16 128.939 19.16ZM126.539 14.208H131.035C131.035 13.7333 130.955 13.3067 130.795 12.928C130.635 12.544 130.389 12.2427 130.059 12.024C129.733 11.8 129.323 11.688 128.827 11.688C128.309 11.688 127.88 11.8133 127.539 12.064C127.197 12.3093 126.944 12.6267 126.779 13.016C126.613 13.4 126.533 13.7973 126.539 14.208ZM137.434 19.16C136.858 19.16 136.322 19.072 135.826 18.896C135.336 18.7147 134.928 18.4347 134.602 18.056C134.277 17.672 134.074 17.184 133.994 16.592H135.338C135.408 16.9173 135.541 17.1893 135.738 17.408C135.936 17.6213 136.178 17.784 136.466 17.896C136.76 18.0027 137.08 18.056 137.426 18.056C137.986 18.056 138.437 17.952 138.778 17.744C139.12 17.536 139.29 17.216 139.29 16.784C139.29 16.48 139.2 16.2373 139.018 16.056C138.842 15.8693 138.565 15.7333 138.186 15.648L136.474 15.224C135.808 15.064 135.274 14.8133 134.874 14.472C134.48 14.1307 134.28 13.6533 134.274 13.04C134.274 12.5547 134.392 12.128 134.626 11.76C134.861 11.392 135.21 11.1013 135.674 10.888C136.144 10.6747 136.728 10.568 137.426 10.568C138.328 10.568 139.053 10.7707 139.602 11.176C140.152 11.576 140.44 12.1653 140.466 12.944H139.154C139.101 12.5493 138.925 12.2373 138.626 12.008C138.328 11.7733 137.922 11.656 137.41 11.656C136.888 11.656 136.458 11.7627 136.122 11.976C135.792 12.184 135.626 12.5093 135.626 12.952C135.626 13.2453 135.744 13.4773 135.978 13.648C136.218 13.8133 136.565 13.952 137.018 14.064L138.682 14.48C139.061 14.5813 139.376 14.7147 139.626 14.88C139.877 15.0453 140.074 15.2293 140.218 15.432C140.362 15.6347 140.464 15.848 140.522 16.072C140.586 16.2907 140.618 16.5013 140.618 16.704C140.618 17.2107 140.493 17.648 140.242 18.016C139.992 18.3787 139.629 18.6613 139.154 18.864C138.68 19.0613 138.106 19.16 137.434 19.16ZM145.412 19.04C144.842 19.04 144.399 18.9627 144.084 18.808C143.77 18.6533 143.548 18.424 143.42 18.12C143.298 17.816 143.236 17.4427 143.236 17V11.808H141.892V10.728H143.276L143.636 8.32H144.724V10.72H146.588V11.808H144.724V16.952C144.724 17.2453 144.754 17.4613 144.812 17.6C144.876 17.7333 144.98 17.8187 145.124 17.856C145.268 17.8933 145.471 17.912 145.732 17.912H146.636V18.904C146.535 18.9413 146.38 18.9733 146.172 19C145.97 19.0267 145.716 19.04 145.412 19.04ZM148.639 19V10.728H150.071V19H148.639ZM148.599 8.976V7.44H150.111V8.976H148.599ZM155.864 19.16C155.101 19.16 154.435 18.9973 153.864 18.672C153.299 18.3413 152.859 17.8587 152.544 17.224C152.229 16.5893 152.072 15.8133 152.072 14.896C152.072 14.032 152.219 13.2747 152.512 12.624C152.805 11.9733 153.235 11.4693 153.8 11.112C154.365 10.7493 155.056 10.568 155.872 10.568C156.635 10.568 157.296 10.736 157.856 11.072C158.416 11.4027 158.851 11.8907 159.16 12.536C159.475 13.1813 159.632 13.968 159.632 14.896C159.632 15.7387 159.488 16.48 159.2 17.12C158.912 17.76 158.488 18.2613 157.928 18.624C157.373 18.9813 156.685 19.16 155.864 19.16ZM155.872 17.992C156.363 17.992 156.779 17.8667 157.12 17.616C157.461 17.3653 157.72 17.0053 157.896 16.536C158.077 16.0667 158.168 15.5093 158.168 14.864C158.168 14.272 158.088 13.7413 157.928 13.272C157.773 12.7973 157.528 12.4213 157.192 12.144C156.856 11.8667 156.416 11.728 155.872 11.728C155.371 11.728 154.947 11.8533 154.6 12.104C154.253 12.3493 153.989 12.7067 153.808 13.176C153.632 13.6453 153.544 14.208 153.544 14.864C153.544 15.4453 153.621 15.9733 153.776 16.448C153.936 16.9227 154.187 17.2987 154.528 17.576C154.875 17.8533 155.323 17.992 155.872 17.992ZM161.599 19V10.728H163.031V11.928C163.164 11.6987 163.348 11.4827 163.583 11.28C163.823 11.0773 164.111 10.9147 164.447 10.792C164.788 10.6693 165.18 10.608 165.623 10.608C166.146 10.608 166.626 10.712 167.063 10.92C167.506 11.128 167.858 11.4533 168.119 11.896C168.386 12.3333 168.519 12.8987 168.519 13.592V19H167.039V13.736C167.039 13.0907 166.868 12.6133 166.527 12.304C166.191 11.9893 165.754 11.832 165.215 11.832C164.842 11.832 164.492 11.8933 164.167 12.016C163.842 12.1333 163.578 12.3147 163.375 12.56C163.172 12.8 163.071 13.104 163.071 13.472V19H161.599ZM173.731 19.16C173.155 19.16 172.619 19.072 172.123 18.896C171.633 18.7147 171.225 18.4347 170.899 18.056C170.574 17.672 170.371 17.184 170.291 16.592H171.635C171.705 16.9173 171.838 17.1893 172.035 17.408C172.233 17.6213 172.475 17.784 172.763 17.896C173.057 18.0027 173.377 18.056 173.723 18.056C174.283 18.056 174.734 17.952 175.075 17.744C175.417 17.536 175.587 17.216 175.587 16.784C175.587 16.48 175.497 16.2373 175.315 16.056C175.139 15.8693 174.862 15.7333 174.483 15.648L172.771 15.224C172.105 15.064 171.571 14.8133 171.171 14.472C170.777 14.1307 170.577 13.6533 170.571 13.04C170.571 12.5547 170.689 12.128 170.923 11.76C171.158 11.392 171.507 11.1013 171.971 10.888C172.441 10.6747 173.025 10.568 173.723 10.568C174.625 10.568 175.35 10.7707 175.899 11.176C176.449 11.576 176.737 12.1653 176.763 12.944H175.451C175.398 12.5493 175.222 12.2373 174.923 12.008C174.625 11.7733 174.219 11.656 173.707 11.656C173.185 11.656 172.755 11.7627 172.419 11.976C172.089 12.184 171.923 12.5093 171.923 12.952C171.923 13.2453 172.041 13.4773 172.275 13.648C172.515 13.8133 172.862 13.952 173.315 14.064L174.979 14.48C175.358 14.5813 175.673 14.7147 175.923 14.88C176.174 15.0453 176.371 15.2293 176.515 15.432C176.659 15.6347 176.761 15.848 176.819 16.072C176.883 16.2907 176.915 16.5013 176.915 16.704C176.915 17.2107 176.79 17.648 176.539 18.016C176.289 18.3787 175.926 18.6613 175.451 18.864C174.977 19.0613 174.403 19.16 173.731 19.16Z" fill="black"/>
</svg>
